<svg xmlns="http://www.w3.org/2000/svg" width="79" height="79" viewBox="0 0 79 79">
    <path fill="#FFAA1E" fill-rule="nonzero" d="M40 56.803c.46.003.893-.214 1.167-.584.7-.933 17.13-22.827 17.13-32.491a18.297 18.297 0 1 0-36.575 0c0 9.722 16.43 31.558 17.13 32.491a1.42 1.42 0 0 0 1.148.584zm0-48.456c8.49.01 15.37 6.89 15.38 15.38 0 6.67-10.188 22.05-15.38 29.167-5.172-7.116-15.361-22.497-15.361-29.166.01-8.483 6.879-15.36 15.361-15.38zm6.32 15.38a6.32 6.32 0 1 0-6.32 6.3 6.339 6.339 0 0 0 6.358-6.3h-.039zm-9.723 0A3.403 3.403 0 1 1 40 27.112a3.383 3.383 0 0 1-3.344-3.383h-.059zM40 11.4c-6.8.01-12.308 5.527-12.308 12.328a.486.486 0 0 1-.973 0c0-7.338 5.943-13.29 13.281-13.3a.486.486 0 1 1 0 .972zm16.82 36.77a1.458 1.458 0 0 0-1.031-.428h-4.706a1.458 1.458 0 1 0 0 2.916h4.142l13.106 13.106H15.15l13.183-13.106h.661a1.458 1.458 0 1 0 0-2.916h-4.822c-.386 0-.757.154-1.03.427L7.119 64.192a1.439 1.439 0 0 0-.31 1.575c.224.545.752.904 1.341.914h63.7a1.478 1.478 0 0 0 1.342-.914 1.439 1.439 0 0 0-.311-1.575L56.819 48.169zm-32.084 2.488h2.1L13.77 63.764h-2.1l13.067-13.106z"/>
</svg>
