<svg xmlns="http://www.w3.org/2000/svg" width="79" height="79" viewBox="0 0 79 79">
    <path fill="#FFAA1E" fill-rule="nonzero" d="M71.753 21.942H62.38a1.458 1.458 0 1 0 0 2.916h7.913V33.2h-6.747a.486.486 0 0 0-.486.486v17.306c0 .268.218.486.486.486h6.747v8.341H40.525v-7.66a9.839 9.839 0 0 0 0-19.64v-7.66h2.294a1.458 1.458 0 1 0 0-2.917H8.247c-.805 0-1.458.653-1.458 1.458v37.878c0 .805.653 1.458 1.458 1.458h63.506c.805 0 1.458-.653 1.458-1.458V23.4c0-.805-.653-1.458-1.458-1.458zm-32.2 29.166a8.867 8.867 0 0 1 0-17.694v17.694zm9.391-8.847a8.886 8.886 0 0 1-8.419 8.847V33.414a8.886 8.886 0 0 1 8.42 8.925v-.078zM9.706 34.172h6.26v16.334h-6.26V34.172zm0 17.306h6.747a.486.486 0 0 0 .486-.486V33.686a.486.486 0 0 0-.486-.486H9.706v-8.342h29.847v7.661a9.839 9.839 0 0 0 0 19.64v7.66H9.706v-8.341zm54.327-.972V34.172h6.261v16.334h-6.26zM44.142 31.06a1.42 1.42 0 0 0 1.536.33l8.147-3.169c.2-.065.38-.178.525-.33l17.694-17.695a1.458 1.458 0 0 0 0-2.06L66.99 3.138a1.439 1.439 0 0 0-2.061 0L47.233 20.833a1.517 1.517 0 0 0-.33.506l-3.014 8.147a1.478 1.478 0 0 0 .253 1.556v.02zm8.477-5.503l-1.147-1.225 13.806-13.61 1.166 1.146L52.62 25.56zm10.714-16.78l1.148 1.147-13.748 13.747-1.01-1.128 13.61-13.766zM65.9 6.21l2.994 2.975-1.944 1.945-1.497-1.498-1.497-1.477L65.9 6.21zM49.158 23.458l2.509 2.509-3.89 1.516 1.381-4.025z"/>
</svg>
