<svg xmlns="http://www.w3.org/2000/svg" width="79" height="79" viewBox="0 0 79 79">
    <path fill="#FFAA1E" fill-rule="nonzero" d="M62.1 36.4a6.46 6.46 0 0 0-2.36-8.86 6.34 6.34 0 0 0-3.44-.86L53 14.16a1.5 1.5 0 0 0-2.36-.8L26.28 31.92l-12.84 3.46A8.98 8.98 0 0 0 16.84 53l6 12.68c.252.523.78.856 1.36.86.126.02.254.02.38 0l7.62-2a1.4 1.4 0 0 0 .96-.82 1.5 1.5 0 0 0 0-1.28l-3.68-7.66 2-.5a.5.5 0 0 0 .32-.28.56.56 0 0 0 0-.44l-2-3.82 1.06-.3 30.34 4h.2a1.5 1.5 0 0 0 1.44-1.88l-3.36-12.52a6.34 6.34 0 0 0 2.62-2.64zM50.64 17.1l.36 1.32-22.84 17.44-.36-1.34L50.64 17.1zM17.8 49.72l-2.46-9.14 12.18-3.26 2.44 9.14-12.16 3.26zm9.06-14.84l.4 1.48L15 39.62l-.38-1.48 12.24-3.26zM9.96 45.62a6 6 0 0 1 3.78-7.18l.4 1.48A4.26 4.26 0 0 0 11.56 45a.48.48 0 0 0 .48.36h.12a.52.52 0 0 0 .36-.62 3.26 3.26 0 0 1 .32-2.52 3.38 3.38 0 0 1 1.56-1.38l2.42 9.06a6 6 0 0 1-6.86-4.28zm15.14 17.6l-5.26-10.94 4.28-1.14.38-.1 5.24 10.94-4.64 1.24zm5.52-9.9l-1.5.4-1.68-3.48 1.46-.38 1.72 3.46zM31 46.3L28.44 37l22.84-17.42 2.46 9.24 1.46 5.44 4.24 15.8L31 46.3zM59.5 35a4 4 0 0 1-.74.9l-1.64-6a4 4 0 0 1 1.12.4 3.52 3.52 0 0 1 1.62 2.12c.22.874.092 1.8-.36 2.58zm7.5-5.16l6.68-1.8a.5.5 0 0 1 .62.36.48.48 0 0 1-.36.6l-6.68 1.8H67a.54.54 0 0 1-.5-.38.5.5 0 0 1 .5-.58zm1.9-10l-4.88 4.9a.52.52 0 0 1-.36.14.5.5 0 0 1-.36-.86L68.12 19a.52.52 0 0 1 .7 0 .5.5 0 0 1 0 .76l.08.08zm5.4 19.42a.48.48 0 0 1-.48.38h-.22L67 37.76a.507.507 0 1 1 .26-.98l6.68 1.8a.48.48 0 0 1 .28.6l.08.08z"/>
</svg>
