<svg xmlns="http://www.w3.org/2000/svg" width="79" height="79" viewBox="0 0 79 79">
    <path fill="#FFAA1E" fill-rule="nonzero" d="M72.488 15.732H59.95v-4.92a1.544 1.544 0 1 0-3.088 0v4.92H23.138v-4.92a1.544 1.544 0 1 0-3.088 0v4.92H7.512c-.853 0-1.544.692-1.544 1.544v47.312a1.565 1.565 0 0 0 1.544 1.544h64.976a1.565 1.565 0 0 0 1.544-1.544V17.235a1.544 1.544 0 0 0-1.544-1.503zM21.594 25.06a1.565 1.565 0 0 0 1.544-1.544V18.82h33.724v4.694a1.544 1.544 0 0 0 3.088 0V18.82h10.932v10.87H12.288v-10.87h7.762v4.694c0 .852.691 1.544 1.544 1.544zM11.3 18.882v10.87H9.118V18.822l2.182.061zM9.118 30.721h2.058v32.323H9.118V30.721zm3.232 32.323V30.721h58.532v32.323H12.35zm29.935-22.647A2.224 2.224 0 1 1 40 38.112c1.228 0 2.224.995 2.224 2.223l.061.062zm9.06 0a2.224 2.224 0 1 1-2.224-2.223c1.18.032 2.129.981 2.161 2.161l.062.062zm9.058 0a2.224 2.224 0 1 1-2.224-2.223c1.18.032 2.13.981 2.162 2.161l.062.062zM24.085 51.165a2.224 2.224 0 1 1-2.203-2.224 2.203 2.203 0 0 1 2.203 2.224zm9.08 0a2.224 2.224 0 1 1-4.447 0 2.224 2.224 0 0 1 4.447 0zm9.059 0a2.224 2.224 0 1 1-4.448 0 2.224 2.224 0 0 1 4.448 0zm9.058 0a2.224 2.224 0 1 1-4.447 0 2.224 2.224 0 0 1 4.447 0z"/>
</svg>
